HIERARCHY
ROOT hips
{
	OFFSET -0.003675 0.299928 -0.021708
	CHANNELS 6 Xposition Yposition Zposition Xrotation Yrotation Zrotation
	JOINT LowerBack
	{
		OFFSET 0.000919 0.177588 0.009275
		CHANNELS 3 Xrotation Yrotation Zrotation
		JOINT spine
		{
			OFFSET 0.000919 0.177588 0.009275
			CHANNELS 3 Xrotation Yrotation Zrotation
			JOINT chest
			{
				OFFSET 0.000456 0.100015 0.004638
				CHANNELS 3 Xrotation Yrotation Zrotation
				JOINT neck
				{
					OFFSET 0.000456 0.100015 0.004638
					CHANNELS 3 Xrotation Yrotation Zrotation
					JOINT head
					{
						OFFSET 0.000924 0.155147 0.009274
						CHANNELS 6 Xposition Yposition Zposition Xrotation Yrotation Zrotation
						End Site
						{
							OFFSET 0.000000 0.153400 0.000000
						}
					}
				}
				JOINT shoulder.L
				{
					OFFSET 0.019937 0.078966 0.057518
					CHANNELS 6 Xposition Yposition Zposition Yrotation Xrotation Zrotation
					JOINT upper_arm.L
					{
						OFFSET 0.177024 -0.020465 -0.095062
						CHANNELS 6 Xposition Yposition Zposition Xrotation Yrotation Zrotation
						JOINT forearm.L
						{
							OFFSET 0.247100 -0.135500 -0.061800
							CHANNELS 3 Xrotation Yrotation Zrotation
							JOINT hand.L
							{
								OFFSET 0.217000 -0.143000 0.039300
								CHANNELS 3 Xrotation Yrotation Zrotation
								JOINT palm.01.L
								{
									OFFSET 0.021770 -0.038291 0.012954
									CHANNELS 6 Xposition Yposition Zposition Yrotation Xrotation Zrotation
									JOINT f_index.01.L
									{
										OFFSET 0.053215 -0.044137 0.008236
										CHANNELS 3 Xrotation Yrotation Zrotation
										JOINT f_index.02.L
										{
											OFFSET 0.036108 -0.024723 -0.010656
											CHANNELS 3 Xrotation Yrotation Zrotation
											JOINT f_index.03.L
											{
												OFFSET 0.021342 -0.014948 -0.010846
												CHANNELS 3 Xrotation Yrotation Zrotation
												End Site
												{
													OFFSET 0.015600 -0.009860 -0.013421
												}
											}
										}
									}
									JOINT thumb.01.L
									{
										OFFSET -0.009090 -0.002348 -0.024223
										CHANNELS 6 Xposition Yposition Zposition Xrotation Yrotation Zrotation
										JOINT thumb.02.L
										{
											OFFSET 0.019713 -0.035076 -0.011120
											CHANNELS 3 Xrotation Yrotation Zrotation
											JOINT thumb.03.L
											{
												OFFSET 0.024877 -0.021748 -0.005176
												CHANNELS 3 Xrotation Yrotation Zrotation
												End Site
												{
													OFFSET 0.016125 -0.013029 -0.001569
												}
											}
										}
									}
								}
								JOINT palm.02.L
								{
									OFFSET 0.032823 -0.025104 0.012281
									CHANNELS 6 Xposition Yposition Zposition Yrotation Xrotation Zrotation
									JOINT f_middle.01.L
									{
										OFFSET 0.055723 -0.038469 0.008037
										CHANNELS 3 Xrotation Yrotation Zrotation
										JOINT f_middle.02.L
										{
											OFFSET 0.038167 -0.027473 -0.015582
											CHANNELS 3 Xrotation Yrotation Zrotation
											JOINT f_middle.03.L
											{
												OFFSET 0.021707 -0.016587 -0.017037
												CHANNELS 3 Xrotation Yrotation Zrotation
												End Site
												{
													OFFSET 0.014112 -0.010584 -0.014294
												}
											}
										}
									}
								}
								JOINT palm.03.L
								{
									OFFSET 0.039230 -0.011402 0.008390
									CHANNELS 6 Xposition Yposition Zposition Yrotation Xrotation Zrotation
									JOINT f_ring.01.L
									{
										OFFSET 0.061796 -0.031470 0.007910
										CHANNELS 3 Xrotation Yrotation Zrotation
										JOINT f_ring.02.L
										{
											OFFSET 0.033092 -0.023401 -0.019127
											CHANNELS 3 Xrotation Yrotation Zrotation
											JOINT f_ring.03.L
											{
												OFFSET 0.021392 -0.015362 -0.017824
												CHANNELS 3 Xrotation Yrotation Zrotation
												End Site
												{
													OFFSET 0.008670 -0.007297 -0.014686
												}
											}
										}
									}
								}
								JOINT palm.04.L
								{
									OFFSET 0.043417 0.002450 0.002889
									CHANNELS 6 Xposition Yposition Zposition Yrotation Xrotation Zrotation
									JOINT f_pinky.01.L
									{
										OFFSET 0.069986 -0.026156 0.003627
										CHANNELS 3 Xrotation Yrotation Zrotation
										JOINT f_pinky.02.L
										{
											OFFSET 0.018520 -0.012813 -0.016429
											CHANNELS 3 Xrotation Yrotation Zrotation
											JOINT f_pinky.03.L
											{
												OFFSET 0.013822 -0.009796 -0.014947
												CHANNELS 3 Xrotation Yrotation Zrotation
												End Site
												{
													OFFSET 0.007238 -0.006103 -0.011657
												}
											}
										}
									}
								}
							}
						}
					}
				}
				JOINT shoulder.R
				{
					OFFSET -0.016662 0.078957 0.057696
					CHANNELS 6 Xposition Yposition Zposition Yrotation Xrotation Zrotation
					JOINT upper_arm.R
					{
						OFFSET -0.176972 -0.020537 -0.095144
						CHANNELS 6 Xposition Yposition Zposition Xrotation Yrotation Zrotation
						JOINT forearm.R
						{
							OFFSET -0.247100 -0.135500 -0.061800
							CHANNELS 3 Xrotation Yrotation Zrotation
							JOINT hand.R
							{
								OFFSET -0.217000 -0.143000 0.039300
								CHANNELS 3 Xrotation Yrotation Zrotation
								JOINT palm.01.R
								{
									OFFSET -0.021773 -0.038278 0.012988
									CHANNELS 6 Xposition Yposition Zposition Yrotation Xrotation Zrotation
									JOINT f_index.01.R
									{
										OFFSET -0.053212 -0.044139 0.008249
										CHANNELS 3 Xrotation Yrotation Zrotation
										JOINT f_index.02.R
										{
											OFFSET -0.036049 -0.024835 -0.010634
											CHANNELS 3 Xrotation Yrotation Zrotation
											JOINT f_index.03.R
											{
												OFFSET -0.021371 -0.014881 -0.010866
												CHANNELS 3 Xrotation Yrotation Zrotation
												End Site
												{
													OFFSET -0.015584 -0.009883 -0.013422
												}
											}
										}
									}
									JOINT thumb.01.R
									{
										OFFSET 0.009113 -0.002381 -0.024211
										CHANNELS 6 Xposition Yposition Zposition Xrotation Yrotation Zrotation
										JOINT thumb.02.R
										{
											OFFSET -0.019694 -0.035097 -0.011088
											CHANNELS 3 Xrotation Yrotation Zrotation
											JOINT thumb.03.R
											{
												OFFSET -0.024867 -0.021762 -0.005168
												CHANNELS 3 Xrotation Yrotation Zrotation
												End Site
												{
													OFFSET -0.016120 -0.013036 -0.001565
												}
											}
										}
									}
								}
								JOINT palm.02.R
								{
									OFFSET -0.032828 -0.025095 0.012286
									CHANNELS 6 Xposition Yposition Zposition Yrotation Xrotation Zrotation
									JOINT f_middle.01.R
									{
										OFFSET -0.055721 -0.038472 0.008040
										CHANNELS 3 Xrotation Yrotation Zrotation
										JOINT f_middle.02.R
										{
											OFFSET -0.038101 -0.027593 -0.015557
											CHANNELS 3 Xrotation Yrotation Zrotation
											JOINT f_middle.03.R
											{
												OFFSET -0.021730 -0.016530 -0.017054
												CHANNELS 3 Xrotation Yrotation Zrotation
												End Site
												{
													OFFSET -0.014096 -0.010608 -0.014293
												}
											}
										}
									}
								}
								JOINT palm.03.R
								{
									OFFSET -0.039192 -0.011488 0.008390
									CHANNELS 6 Xposition Yposition Zposition Yrotation Xrotation Zrotation
									JOINT f_ring.01.R
									{
										OFFSET -0.061839 -0.031387 0.007876
										CHANNELS 3 Xrotation Yrotation Zrotation
										JOINT f_ring.02.R
										{
											OFFSET -0.033068 -0.023437 -0.019125
											CHANNELS 3 Xrotation Yrotation Zrotation
											JOINT f_ring.03.R
											{
												OFFSET -0.021371 -0.015393 -0.017822
												CHANNELS 3 Xrotation Yrotation Zrotation
												End Site
												{
													OFFSET -0.008654 -0.007321 -0.014684
												}
											}
										}
									}
								}
								JOINT palm.04.R
								{
									OFFSET -0.043421 0.002443 0.002845
									CHANNELS 6 Xposition Yposition Zposition Yrotation Xrotation Zrotation
									JOINT f_pinky.01.R
									{
										OFFSET -0.069983 -0.026169 0.003599
										CHANNELS 3 Xrotation Yrotation Zrotation
										JOINT f_pinky.02.R
										{
											OFFSET -0.018501 -0.012842 -0.016428
											CHANNELS 3 Xrotation Yrotation Zrotation
											JOINT f_pinky.03.R
											{
												OFFSET -0.013806 -0.009821 -0.014946
												CHANNELS 3 Xrotation Yrotation Zrotation
												End Site
												{
													OFFSET -0.007226 -0.006121 -0.011655
												}
											}
										}
									}
								}
							}
						}
					}
				}
			}
		}
	}
	JOINT pelvis.L
	{
		OFFSET 0.000000 0.000000 0.000000
		CHANNELS 6 Xposition Yposition Zposition Xrotation Yrotation Zrotation
		JOINT thigh.L
		{
			OFFSET 0.101675 0.001054 -0.000000
			CHANNELS 3 Xrotation Yrotation Zrotation
			JOINT shin.L
			{
				OFFSET 0.000000 -0.534800 0.041000
				CHANNELS 3 Xrotation Yrotation Zrotation
				JOINT foot.L
				{
					OFFSET 0.000000 -0.452000 -0.044800
					CHANNELS 3 Xrotation Yrotation Zrotation
					JOINT toe.L
					{
						OFFSET -0.000000 -0.068500 0.109600
						CHANNELS 3 Xrotation Yrotation Zrotation
						End Site
						{
							OFFSET -0.000000 0.000000 0.067200
						}
					}
				}
				JOINT heel.L
				{
					OFFSET 0.000000 -0.452000 -0.044800
					CHANNELS 3 Xrotation Yrotation Zrotation
					JOINT heel.02.L
					{
						OFFSET -0.038000 -0.085200 0.016200
						CHANNELS 6 Xposition Yposition Zposition Xrotation Yrotation Zrotation
						End Site
						{
							OFFSET 0.080000 -0.000000 0.000000
						}
					}
				}
			}
		}
	}
	JOINT pelvis.R
	{
		OFFSET 0.000000 0.000000 0.000000
		CHANNELS 6 Xposition Yposition Zposition Xrotation Yrotation Zrotation
		JOINT thigh.R
		{
			OFFSET -0.094325 0.001054 0.000000
			CHANNELS 3 Xrotation Yrotation Zrotation
			JOINT shin.R
			{
				OFFSET 0.000000 -0.534800 0.041000
				CHANNELS 3 Xrotation Yrotation Zrotation
				JOINT foot.R
				{
					OFFSET 0.000000 -0.452000 -0.044800
					CHANNELS 3 Xrotation Yrotation Zrotation
					JOINT toe.R
					{
						OFFSET -0.000000 -0.068500 0.109600
						CHANNELS 3 Xrotation Yrotation Zrotation
						End Site
						{
							OFFSET -0.000000 0.000000 0.067200
						}
					}
				}
				JOINT heel.R
				{
					OFFSET 0.000000 -0.452000 -0.044800
					CHANNELS 3 Xrotation Yrotation Zrotation
					JOINT heel.02.R
					{
						OFFSET 0.038000 -0.085200 0.016200
						CHANNELS 6 Xposition Yposition Zposition Xrotation Yrotation Zrotation
						End Site
						{
							OFFSET -0.080000 0.000000 -0.000000
						}
					}
				}
			}
		}
	}
}
MOTION
Frames: 4
Frame Time: 0.041667
-0.003675 0.299928 -0.021708 0.000000 -0.000000 0.000000 -0.000001 0.000000 0.000000 -0.000000 0.000000 0.000000 -0.000000 0.000000 0.000000 -0.000000 -0.000000 -0.000000 0.000924 0.155147 0.009274 -0.000001 -0.000000 -0.000000 0.019937 0.078966 0.057518 0.000001 0.000001 -0.000005 0.177024 -0.020465 -0.095062 -0.000006 -0.000003 0.000015 -0.000009 -0.000004 -0.000009 -0.000000 0.000000 0.000001 0.021770 -0.038291 0.012954 0.000001 -0.000001 0.000001 -0.000001 -0.000001 -0.000002 -0.000001 -0.000000 0.000007 -0.000000 0.000000 0.000003 -0.009090 -0.002348 -0.024224 -0.000002 0.000001 0.000001 0.000001 -0.000001 0.000001 -0.000000 0.000000 -0.000001 0.032823 -0.025104 0.012281 0.000000 -0.000000 0.000000 0.000001 0.000004 -0.000003 -0.000001 -0.000000 -0.000000 -0.000001 -0.000003 0.000003 0.039230 -0.011402 0.008390 -0.000000 -0.000000 0.000008 0.000001 0.000001 -0.000000 -0.000001 0.000003 -0.000001 0.000002 0.000002 -0.000000 0.043417 0.002450 0.002889 -0.000000 0.000001 0.000002 -0.000001 -0.000003 0.000001 -0.000000 0.000003 -0.000000 -0.000000 -0.000003 0.000001 -0.016662 0.078956 0.057696 -0.000001 0.000002 0.000011 -0.176972 -0.020537 -0.095144 0.000001 -0.000003 -0.000005 -0.000006 0.000005 -0.000014 -0.000001 -0.000000 0.000000 -0.021773 -0.038278 0.012988 0.000000 -0.000001 -0.000003 -0.000001 0.000001 -0.000003 -0.000001 -0.000000 0.000001 0.000001 0.000002 0.000007 0.009113 -0.002381 -0.024211 0.000002 -0.000001 0.000004 -0.000000 0.000001 0.000002 0.000000 0.000000 -0.000003 -0.032828 -0.025095 0.012286 0.000001 -0.000001 -0.000001 -0.000001 0.000003 -0.000003 -0.000002 0.000004 -0.000001 0.000001 -0.000002 -0.000000 -0.039192 -0.011488 0.008390 0.000000 0.000000 0.000001 -0.000000 0.000003 -0.000003 -0.000001 0.000001 0.000002 -0.000001 0.000000 -0.000003 -0.043421 0.002443 0.002844 -0.000000 -0.000001 0.000000 -0.000007 0.000003 -0.000002 -0.000003 -0.000000 -0.000000 0.000001 -0.000000 0.000001 -0.000000 0.000000 -0.000000 -0.000001 -0.000000 0.000001 0.000009 -0.000202 0.000014 -0.000026 0.000202 -0.000015 0.000000 -0.000000 -0.000000 0.000002 -0.000000 -0.000000 0.000000 0.000000 -0.000000 -0.038000 -0.085200 0.016200 0.000000 0.000000 0.000000 0.000000 -0.000000 -0.000000 -0.000001 0.000000 -0.000004 0.000008 -0.000013 0.000005 -0.000012 0.000013 -0.000001 -0.000003 -0.000000 -0.000000 0.000000 -0.000000 -0.000000 0.000002 -0.000000 -0.000000 0.038000 -0.085200 0.016200 0.000002 -0.000000 0.000000 
-0.005377 0.299946 -0.016780 -0.897126 -18.674955 -3.221792 -0.000000 0.000000 -0.000000 -0.000001 0.000002 0.000000 0.000000 -0.000002 0.000000 0.000001 0.000000 -0.000000 0.000924 0.155147 0.009274 7.699053 -0.006667 1.987308 0.019937 0.078966 0.057518 -29.976157 13.241247 54.080789 0.177025 -0.020465 -0.095062 -158.414490 75.518902 1.281036 -16.787528 -6.745033 -109.477359 -0.000002 0.000004 0.000002 0.021770 -0.038291 0.012954 0.000002 -0.000000 -0.000002 0.000001 -0.000000 0.000001 -0.000001 0.000001 0.000005 -0.000002 -0.000000 -0.000006 -0.009090 -0.002348 -0.024224 0.000001 -0.000002 -0.000001 0.000001 -0.000001 0.000003 0.000004 -0.000001 -0.000002 0.032823 -0.025104 0.012281 0.000000 -0.000002 0.000007 -0.000002 -0.000001 -0.000003 -0.000002 -0.000003 0.000001 0.000004 -0.000003 -0.000001 0.039230 -0.011402 0.008390 0.000003 -0.000003 0.000001 0.000000 0.000006 0.000001 0.000002 0.000002 0.000003 0.000000 0.000000 0.000004 0.043417 0.002450 0.002889 -0.000000 -0.000002 -0.000005 -0.000001 -0.000006 -0.000000 -0.000002 0.000000 0.000001 0.000001 0.000002 0.000002 -0.016662 0.078957 0.057696 -16.630307 9.785308 -31.298816 -0.176972 -0.020537 -0.095144 -10.037362 -10.022817 61.746775 -52.737789 -23.020956 86.818856 -0.000000 0.000002 0.000001 -0.021773 -0.038278 0.012988 -0.000000 -0.000001 -0.000003 -0.000002 -0.000001 -0.000005 -0.000001 -0.000000 -0.000005 -0.000002 -0.000005 0.000001 0.009114 -0.002381 -0.024212 0.000001 -0.000003 -0.000005 0.000003 0.000000 -0.000003 -0.000001 -0.000003 -0.000006 -0.032828 -0.025095 0.012286 0.000001 -0.000001 -0.000003 -0.000000 -0.000000 0.000001 -0.000000 -0.000003 -0.000002 -0.000004 0.000001 -0.000002 -0.039192 -0.011488 0.008390 0.000001 -0.000002 -0.000000 -0.000001 0.000003 -0.000003 0.000003 -0.000003 -0.000002 -0.000002 0.000004 -0.000001 -0.043421 0.002443 0.002845 0.000001 0.000000 0.000000 -0.000003 0.000004 -0.000002 0.000000 -0.000002 0.000004 0.000001 0.000002 0.000003 0.000000 0.000000 -0.000000 -0.990539 0.093778 -2.422212 7.608911 0.496843 6.361160 21.724284 0.223363 -2.252074 -0.000003 -0.000001 -0.000000 0.000002 0.000000 0.000001 -0.000002 0.000001 -0.000001 -0.038000 -0.085200 0.016200 -0.000001 -0.000001 -0.000000 0.000000 -0.000000 -0.000000 -0.966864 0.093020 -1.188068 3.529637 -0.370390 -4.911284 25.937929 0.543859 -5.495063 0.000000 0.000001 -0.000001 0.000001 -0.000000 -0.000001 0.000002 0.000001 0.000000 0.038000 -0.085200 0.016200 0.000001 -0.000000 0.000002 
-0.005392 0.300165 -0.016851 -0.641056 -18.330081 -3.089669 -0.000001 -0.000001 -0.000000 -0.000000 -0.000003 -0.000000 -0.000000 0.000002 -0.000000 0.000000 0.000004 -0.000000 0.000924 0.155148 0.009274 7.235052 -0.006126 1.911955 0.019937 0.078966 0.057518 -30.503492 13.400220 54.411835 0.177025 -0.020466 -0.095062 -157.445436 75.870752 0.298220 -15.555937 -8.244896 -108.662839 -0.000002 0.000002 -0.000001 0.021770 -0.038291 0.012954 0.000005 -0.000002 -0.000004 0.000001 0.000001 -0.000000 -0.000000 -0.000004 0.000006 0.000001 0.000000 -0.000001 -0.009090 -0.002348 -0.024224 0.000001 0.000001 -0.000002 -0.000000 0.000002 -0.000000 -0.000003 0.000005 0.000001 0.032823 -0.025104 0.012281 0.000002 -0.000001 -0.000001 -0.000003 0.000003 -0.000003 -0.000001 -0.000002 -0.000000 0.000000 -0.000006 0.000004 0.039230 -0.011402 0.008390 0.000003 -0.000002 0.000001 0.000005 0.000001 -0.000005 -0.000003 0.000004 0.000003 -0.000002 -0.000002 0.000003 0.043417 0.002450 0.002889 -0.000000 -0.000003 -0.000007 0.000002 -0.000002 -0.000004 0.000002 -0.000004 -0.000001 -0.000003 -0.000005 -0.000001 -0.016662 0.078957 0.057696 -17.217672 10.006364 -31.633745 -0.176972 -0.020537 -0.095144 -9.277652 -9.864277 60.741152 -52.777784 -24.733997 88.163652 -0.000000 -0.000001 -0.000001 -0.021773 -0.038278 0.012988 -0.000000 -0.000004 0.000000 -0.000006 0.000002 -0.000003 0.000000 0.000001 -0.000002 0.000003 0.000003 0.000002 0.009114 -0.002381 -0.024211 -0.000001 -0.000000 -0.000001 0.000001 0.000001 0.000000 -0.000000 0.000001 -0.000001 -0.032828 -0.025095 0.012286 -0.000000 -0.000003 -0.000001 -0.000001 0.000002 -0.000001 -0.000001 0.000000 -0.000002 0.000003 0.000003 -0.000002 -0.039192 -0.011488 0.008390 0.000000 -0.000000 0.000003 0.000001 0.000006 -0.000003 -0.000002 0.000000 -0.000000 0.000001 -0.000002 0.000001 -0.043421 0.002443 0.002845 -0.000000 -0.000001 0.000002 -0.000005 0.000006 0.000001 0.000002 -0.000000 0.000003 -0.000000 0.000000 0.000004 0.000000 0.000000 0.000000 -0.984801 0.088930 -2.355204 7.470889 0.493621 6.325739 21.947242 0.249103 -2.511962 0.000000 0.000000 -0.000000 0.000003 0.000001 0.000001 0.000003 -0.000001 0.000000 -0.038000 -0.085200 0.016200 -0.000001 0.000001 0.000000 -0.000000 0.000000 0.000000 -0.961379 0.088211 -1.121058 3.414930 -0.375955 -4.991034 26.169892 0.555553 -5.613607 0.000002 0.000001 0.000001 0.000002 0.000001 0.000002 0.000005 0.000000 -0.000000 0.038000 -0.085200 0.016200 -0.000002 0.000001 -0.000001 
-0.006857 0.298149 -0.015278 -3.569829 -8.006923 -4.629878 -0.000000 -0.000000 -0.000000 -0.000001 0.000001 -0.000000 0.000000 -0.000001 0.000000 0.000001 -0.000000 0.000001 0.000924 0.155148 0.009274 6.908457 -0.005594 2.177039 0.019937 0.078966 0.057518 -20.229209 12.826082 55.121201 0.177024 -0.020465 -0.095062 -207.249304 105.947879 47.178920 -15.505078 -10.658718 -120.189855 -0.000002 -0.000000 -0.000002 0.021770 -0.038291 0.012954 -0.000001 0.000001 -0.000002 -0.000003 0.000002 0.000003 0.000002 -0.000004 0.000004 0.000002 0.000000 0.000003 -0.009090 -0.002348 -0.024223 -0.000002 0.000002 -0.000000 0.000001 0.000002 0.000001 -0.000004 -0.000002 -0.000004 0.032823 -0.025104 0.012281 -0.000003 -0.000000 0.000002 0.000000 0.000003 -0.000003 -0.000000 -0.000002 -0.000004 0.000003 0.000000 -0.000001 0.039230 -0.011402 0.008390 -0.000000 -0.000000 -0.000001 -0.000001 -0.000001 0.000001 -0.000001 0.000001 -0.000001 -0.000004 0.000004 0.000003 0.043417 0.002450 0.002889 0.000000 0.000002 -0.000002 -0.000003 -0.000002 0.000001 0.000001 0.000000 0.000001 -0.000001 0.000001 0.000001 -0.016662 0.078957 0.057696 -4.935242 10.895189 -42.101539 -0.176972 -0.020537 -0.095144 -52.160881 -32.606613 75.999440 -30.292172 -21.318892 118.341224 -0.000004 -0.000001 0.000001 -0.021773 -0.038278 0.012988 -0.000001 -0.000001 -0.000003 0.000003 0.000001 0.000001 -0.000003 0.000003 0.000001 0.000004 0.000000 0.000004 0.009114 -0.002381 -0.024211 0.000003 -0.000005 -0.000000 -0.000003 -0.000004 0.000000 -0.000002 0.000003 -0.000003 -0.032828 -0.025095 0.012286 0.000000 0.000002 0.000001 0.000001 0.000005 -0.000003 0.000005 0.000003 -0.000000 -0.000003 -0.000003 -0.000006 -0.039192 -0.011488 0.008390 -0.000000 0.000005 -0.000000 -0.000001 0.000003 -0.000003 0.000004 0.000000 0.000002 -0.000000 0.000005 0.000004 -0.043421 0.002442 0.002845 -0.000001 0.000001 0.000000 -0.000000 0.000001 0.000003 -0.000000 -0.000002 -0.000002 -0.000002 0.000000 -0.000004 -0.000000 0.000000 0.000000 -0.930809 -0.050104 -0.351249 5.633938 0.325392 4.211694 18.426211 -0.549411 5.554113 0.000002 -0.000000 -0.000001 0.000002 -0.000000 0.000000 0.000005 -0.000001 -0.000000 -0.038000 -0.085200 0.016200 -0.000002 0.000000 0.000001 -0.000000 0.000000 0.000000 -0.912076 -0.050023 0.882952 9.272444 0.012892 0.443546 17.760143 0.189239 -1.909024 0.000000 0.000000 0.000000 0.000003 -0.000001 0.000000 0.000003 0.000000 0.000000 0.038000 -0.085200 0.016200 -0.000001 -0.000000 -0.000000 
